# xmcd
# 
# Track frame offsets:
#     150
#     24313
#     42601
#     59876
#     84581
#     102780
#     118010
#     132070
#     148976
#     166597
#     184859
#     204963
#     220695
#     246041
#     265090
# 
# Disc length: 3760
# 
# Revision: 4
# Processed by: cddbd v1.5.2PL0 Copyright (c) Steve Scherf et al.
# Submitted via: BonkEnc v1.0.8
# 
DISCID=d40eae0f
DTITLE=Various Artist - עבודה עברית 2 - דיסק 4
DYEAR=2008
DGENRE=Hebrew
TTITLE0=יהודה פוליקר וברי סחרוף - רדיו רמאללה
TTITLE1=עברי לידר - השדות האדומים
TTITLE2=מאור כהן - שיר של יום חולין
TTITLE3=שחר ואייל אבן צור - מנסים להגיע
TTITLE4=דבק - שיר תשרי
TTITLE5=Useless ID - לו הייתי פיראט
TTITLE6=תומר יוסף ובן הנדלר - עברתי רק כדי לראות
TTITLE7=הדג נחש - רגאיי הבטלן
TTITLE8=ליאור אלמליח - תפוח חינני
TTITLE9=רמי דנוך - את
TTITLE10=אפרת בן צור - שני תפוחים
TTITLE11=אסף ארליך - כשצלצלת רעד קולך
TTITLE12=נתנאלה - באביב
TTITLE13=אריק סיני - רק אתמול
TTITLE14=יונתן רזאל - עוד יום
EXTD=YEAR: 2008
EXTT0=
EXTT1=
EXTT2=
EXTT3=
EXTT4=
EXTT5=
EXTT6=
EXTT7=
EXTT8=
EXTT9=
EXTT10=
EXTT11=
EXTT12=
EXTT13=
EXTT14=
PLAYORDER=
